<svg width="8" height="7" viewBox="0 0 8 7" fill="none" xmlns="http://www.w3.org/2000/svg">
    <path d="M3.25 1.01782V1.52674H7.99563C7.989 1.36262 7.97475 1.15514 7.92375 1.01782" fill="#EC1C24"/>
    <path d="M7.7 0.508911H3.25V1.01783H7.92375C7.873 0.827964 7.7975 0.654811 7.7 0.508911Z" fill="#E6E7E8"/>
    <path d="M6.75 0H3.25V0.508919H7.7C7.49137 0.194232 7.148 0 6.75 0Z" fill="#EC1C24"/>
    <path d="M7.99563 1.52673H3.25V2.03565H8V1.69642C8 1.66616 7.99837 1.63665 7.99762 1.60699C7.99712 1.59886 7.99638 1.57793 7.99563 1.52673Z" fill="#E6E7E8"/>
    <path d="M3.25 2.54456H8V2.03564H3.25V2.54456Z" fill="#EC1C24"/>
    <path d="M3.25 3.05347H8V2.54456H3.25V3.05347Z" fill="#E6E7E8"/>
    <path d="M3.25 3.05347H8V3.56239H3.25V3.05347Z" fill="#EC1C24"/>
    <path d="M0 3.5625V4.07142H8V3.5625H3.25H0Z" fill="#E6E7E8"/>
    <path d="M0 4.07141H8V4.58033H0V4.07141Z" fill="#EC1C24"/>
    <path d="M0.000625 4.89323C0.000625 4.89323 -0.0005 5.01655 0.0025 5.08912H7.9975C8.001 5.01474 7.99937 4.89323 7.99937 4.89323L8 4.5802H0L0.000625 4.89323Z" fill="#E6E7E8"/>
    <path d="M1.25001 6.62501H6.75001C7.14913 6.62501 7.48088 6.45035 7.70751 6.10706H0.29126C0.52526 6.45788 0.86326 6.62501 1.24938 6.62501" fill="#EC1C24"/>
    <path d="M0.291873 6.10706H7.70812C7.80699 5.95575 7.88083 5.78299 7.92562 5.59814H0.0756226C0.12126 5.78243 0.194787 5.95497 0.292498 6.10706" fill="#E6E7E8"/>
    <path d="M0.0750025 5.59815H7.925C7.96594 5.4326 7.99028 5.26175 7.9975 5.08923H0.00250244C0.0148774 5.26329 0.0263774 5.39474 0.0750025 5.59815Z" fill="#EC1C24"/>
    <path d="M3.25 0H1.25C0.421625 0 0 0.741546 0 1.65624V3.56243H3.25V0Z" fill="#176496"/>
    <path d="M0.349758 0.89983L0.417758 0.836892L0.485633 0.89983L0.459258 0.798648L0.526883 0.736765H0.443383L0.417508 0.635132L0.391758 0.736765H0.308383L0.376258 0.798648L0.349758 0.89983ZM0.799008 0.89983L0.867008 0.836892L0.934883 0.89983L0.908633 0.798648L0.976133 0.736765H0.892758L0.866883 0.635132L0.841133 0.736765H0.757508L0.825383 0.798648L0.799008 0.89983ZM1.29463 0.89983L1.36251 0.836892L1.43051 0.89983L1.40413 0.798648L1.47163 0.736765H1.38876L1.36251 0.635132L1.33663 0.736765H1.25376L1.32088 0.798648L1.29463 0.89983ZM1.78663 0.89983L1.85451 0.836892L1.92251 0.89983L1.89626 0.798648L1.96376 0.736765H1.88001L1.85451 0.635132L1.82876 0.736765H1.74526L1.81301 0.798648L1.78663 0.89983ZM2.28038 0.89983L2.34838 0.836892L2.41626 0.89983L2.39001 0.798648L2.45763 0.736765H2.37401L2.34826 0.635132L2.32251 0.736765H2.23913L2.30663 0.798648L2.28038 0.89983ZM0.588883 1.16408L0.656758 1.10129L0.724633 1.16408L0.698508 1.06304L0.766008 1.00116H0.682508L0.656633 0.899679L0.631258 1.00116H0.547508L0.615133 1.06304L0.588883 1.16408ZM1.03826 1.16408L1.10613 1.10129L1.17401 1.16408L1.14776 1.06304L1.21526 1.00116H1.13126L1.10613 0.899679L1.08026 1.00116H0.996883L1.06451 1.06304L1.03826 1.16408ZM1.53388 1.16408L1.60163 1.10129L1.66951 1.16408L1.64326 1.06304L1.71088 1.00116H1.62751L1.60163 0.899679L1.57576 1.00116H1.49226L1.55988 1.06304L1.53388 1.16408ZM2.02563 1.16408L2.09363 1.10129L2.16163 1.16408L2.13501 1.06304L2.20276 1.00116H2.11938L2.09351 0.899679L2.06788 1.00116H1.98438L2.05201 1.06304L2.02563 1.16408ZM2.52001 1.16408L2.58738 1.10129L2.65526 1.16408L2.62876 1.06304L2.69651 1.00116H2.61326L2.58726 0.899679L2.56163 1.00116H2.47813L2.54576 1.06304L2.52001 1.16408ZM2.79838 0.89983L2.86626 0.836892L2.93426 0.89983L2.90788 0.798648L2.97538 0.736765H2.89251L2.86613 0.635132L2.84038 0.736765H2.75626L2.82463 0.798648L2.79838 0.89983ZM0.343133 3.0144L0.411133 2.95222L0.479008 3.0144L0.452758 2.91412L0.520258 2.85209L0.436883 2.85239L0.410883 2.75091L0.385383 2.85239L0.301758 2.85209L0.369383 2.91412L0.343133 3.0144ZM0.792508 3.0144L0.860383 2.95222L0.928383 3.0144L0.902008 2.91412L0.969508 2.85209L0.886258 2.85239L0.860258 2.75091L0.834633 2.85239L0.751258 2.85209L0.818758 2.91412L0.792508 3.0144ZM1.28813 3.0144L1.35601 2.95222L1.42401 3.0144L1.39763 2.91412L1.46513 2.85209L1.38126 2.85239L1.35588 2.75091L1.33013 2.85239L1.24676 2.85209L1.31438 2.91412L1.28813 3.0144ZM1.78013 3.0144L1.84801 2.95222L1.91588 3.0144L1.89001 2.91412L1.95713 2.85209L1.87363 2.85239L1.84788 2.75091L1.82213 2.85239L1.73876 2.85209L1.80626 2.91412L1.78013 3.0144ZM2.27376 3.0144L2.34176 2.95222L2.40976 3.0144L2.38376 2.91412L2.45088 2.85209L2.36751 2.85239L2.34163 2.75091L2.31601 2.85239L2.23251 2.85209L2.30001 2.91412L2.27376 3.0144ZM2.79176 3.0144L2.85963 2.95222L2.92763 3.0144L2.90126 2.91412L2.96888 2.85209L2.88501 2.85239L2.85951 2.75091L2.83376 2.85239L2.75001 2.85209L2.81801 2.91412L2.79176 3.0144ZM0.349758 1.42862L0.417758 1.36569L0.485633 1.42862L0.459258 1.32744L0.526883 1.26556L0.443383 1.26586L0.417508 1.16408L0.391758 1.26586L0.308383 1.26556L0.376258 1.32744L0.349758 1.42862ZM0.799008 1.42862L0.867008 1.36569L0.934883 1.42862L0.908633 1.32744L0.976133 1.26556L0.892758 1.26586L0.866883 1.16408L0.841133 1.26586L0.757508 1.26556L0.825383 1.32744L0.799008 1.42862ZM1.29463 1.42862L1.36251 1.36569L1.43051 1.42862L1.40413 1.32744L1.47163 1.26556L1.38876 1.26586L1.36251 1.16408L1.33663 1.26586L1.25376 1.26556L1.32088 1.32744L1.29463 1.42862ZM1.78663 1.42862L1.85451 1.36569L1.92251 1.42862L1.89626 1.32744L1.96376 1.26556L1.88001 1.26586L1.85451 1.16408L1.82876 1.26586L1.74526 1.26556L1.81301 1.32744L1.78663 1.42862ZM2.28038 1.42862L2.34838 1.36569L2.41626 1.42862L2.39001 1.32744L2.45763 1.26556L2.37401 1.26586L2.34826 1.16408L2.32251 1.26586L2.23913 1.26556L2.30663 1.32744L2.28038 1.42862ZM0.588883 1.69302L0.656758 1.63023L0.724633 1.69302L0.698508 1.59199L0.766008 1.5298H0.682508L0.656633 1.42862L0.631258 1.5298H0.547508L0.615133 1.59199L0.588883 1.69302ZM1.03826 1.69302L1.10613 1.63023L1.17401 1.69302L1.14776 1.59199L1.21526 1.5298H1.13126L1.10613 1.42862L1.08026 1.5298H0.996883L1.06451 1.59199L1.03826 1.69302ZM1.53388 1.69302L1.60163 1.63023L1.66951 1.69302L1.64326 1.59199L1.71088 1.5298H1.62751L1.60163 1.42862L1.57576 1.5298H1.49226L1.55988 1.59199L1.53388 1.69302ZM2.02563 1.69302L2.09363 1.63023L2.16163 1.69302L2.13501 1.59199L2.20276 1.5298H2.11938L2.09351 1.42862L2.06788 1.5298H1.98438L2.05201 1.59199L2.02563 1.69302ZM2.52001 1.69302L2.58738 1.63023L2.65526 1.69302L2.62876 1.59199L2.69651 1.5298H2.61326L2.58726 1.42862L2.56163 1.5298H2.47813L2.54576 1.59199L2.52001 1.69302ZM2.79838 1.42862L2.86626 1.36569L2.93426 1.42862L2.90788 1.32744L2.97538 1.26556L2.89251 1.26586L2.86613 1.16408L2.84038 1.26586L2.75626 1.26556L2.82463 1.32744L2.79838 1.42862ZM0.343133 1.95742L0.411133 1.89463L0.479008 1.95742L0.452633 1.85654L0.520258 1.7945L0.436758 1.7948L0.410883 1.69302L0.385383 1.7948L0.301758 1.7945L0.369383 1.85654L0.343133 1.95742ZM0.792508 1.95742L0.860383 1.89463L0.928383 1.95742L0.902008 1.85654L0.969508 1.7945L0.886258 1.7948L0.860258 1.69302L0.834633 1.7948L0.751258 1.7945L0.818633 1.85654L0.792508 1.95742ZM1.28813 1.95742L1.35601 1.89463L1.42388 1.95742L1.39763 1.85654L1.46513 1.7945L1.38126 1.7948L1.35588 1.69302L1.33013 1.7948L1.24676 1.7945L1.31438 1.85654L1.28813 1.95742ZM1.78013 1.95742L1.84788 1.89463L1.91588 1.95742L1.89001 1.85654L1.95713 1.7945L1.87363 1.7948L1.84788 1.69302L1.82213 1.7948L1.73876 1.7945L1.80626 1.85654L1.78013 1.95742ZM2.27376 1.95742L2.34176 1.89463L2.40963 1.95742L2.38376 1.85654L2.45088 1.7945L2.36738 1.7948L2.34163 1.69302L2.31601 1.7948L2.23251 1.7945L2.30001 1.85654L2.27376 1.95742ZM0.582258 2.22181L0.650133 2.15918L0.718008 2.22181L0.691883 2.12154L0.759258 2.0592H0.675758L0.650008 1.95742L0.624383 2.0592H0.540883L0.608508 2.12154L0.582258 2.22181ZM1.03163 2.22181L1.09951 2.15918L1.16738 2.22181L1.14113 2.12154L1.20863 2.0592H1.12501L1.09938 1.95742L1.07363 2.0592H0.990133L1.05788 2.12154L1.03163 2.22181ZM1.52738 2.22181L1.59501 2.15918L1.66301 2.22181L1.63626 2.12154L1.70426 2.0592H1.62088L1.59501 1.95742L1.56926 2.0592H1.48576L1.55338 2.12154L1.52738 2.22181ZM2.01876 2.22181L2.08701 2.15918L2.15501 2.22181L2.12876 2.12154L2.19613 2.0592H2.11276L2.08688 1.95742L2.06126 2.0592H1.97776L2.04538 2.12154L2.01876 2.22181ZM2.51251 2.22181L2.58076 2.15918L2.64876 2.22181L2.62238 2.12154L2.69013 2.0592H2.60676L2.58076 1.95742L2.55501 2.0592H2.47151L2.53913 2.12154L2.51251 2.22181ZM2.79176 1.95742L2.85963 1.89463L2.92751 1.95742L2.90126 1.85654L2.96888 1.7945L2.88501 1.7948L2.85951 1.69302L2.83376 1.7948L2.75001 1.7945L2.81801 1.85654L2.79176 1.95742ZM0.343133 2.48636L0.411133 2.42418L0.479008 2.48636L0.452633 2.38533L0.520258 2.3233L0.436758 2.3236L0.410883 2.22181L0.385383 2.3236L0.301758 2.3233L0.369383 2.38533L0.343133 2.48636ZM0.792508 2.48636L0.860383 2.42418L0.928383 2.48636L0.902008 2.38533L0.969508 2.3233L0.886258 2.3236L0.860258 2.22181L0.834633 2.3236L0.751258 2.3233L0.818633 2.38533L0.792508 2.48636ZM1.28813 2.48636L1.35601 2.42418L1.42388 2.48636L1.39763 2.38533L1.46513 2.3233L1.38126 2.3236L1.35588 2.22181L1.33013 2.3236L1.24676 2.3233L1.31438 2.38533L1.28813 2.48636ZM1.78013 2.48636L1.84788 2.42418L1.91588 2.48636L1.89001 2.38533L1.95713 2.3233L1.87363 2.3236L1.84788 2.22181L1.82213 2.3236L1.73876 2.3233L1.80626 2.38533L1.78013 2.48636ZM2.27376 2.48636L2.34176 2.42418L2.40963 2.48636L2.38376 2.38533L2.45088 2.3233L2.36738 2.3236L2.34163 2.22181L2.31601 2.3236L2.23251 2.3233L2.30001 2.38533L2.27376 2.48636ZM0.582258 2.75091L0.650133 2.68797L0.718008 2.75091L0.691883 2.64973L0.759258 2.5883H0.675758L0.650008 2.48636L0.624383 2.5883H0.540883L0.608508 2.64973L0.582258 2.75091ZM1.03163 2.75091L1.09951 2.68797L1.16738 2.75091L1.14113 2.64973L1.20863 2.5883H1.12501L1.09938 2.48636L1.07363 2.5883H0.990133L1.05788 2.64973L1.03163 2.75091ZM1.52738 2.75091L1.59501 2.68797L1.66301 2.75091L1.63626 2.64973L1.70426 2.5883H1.62088L1.59501 2.48636L1.56926 2.5883H1.48576L1.55338 2.64973L1.52738 2.75091ZM2.01876 2.75091L2.08701 2.68797L2.15501 2.75091L2.12876 2.64973L2.19613 2.5883H2.11276L2.08688 2.48636L2.06126 2.5883H1.97776L2.04538 2.64973L2.01876 2.75091ZM2.51251 2.75091L2.58076 2.68797L2.64876 2.75091L2.62238 2.64973L2.69013 2.5883H2.60676L2.58076 2.48636L2.55501 2.5883H2.47151L2.53913 2.64973L2.51251 2.75091ZM2.79176 2.48636L2.85963 2.42418L2.92751 2.48636L2.90126 2.38533L2.96888 2.3233L2.88501 2.3236L2.85951 2.22181L2.83376 2.3236L2.75001 2.3233L2.81801 2.38533L2.79176 2.48636Z" fill="white"/>
</svg>
