<svg width="50" height="50" viewBox="0 0 256 256" fill="none" xmlns="http://www.w3.org/2000/svg">
    <path d="M128 256C198.692 256 256 198.692 256 128C256 57.3075 198.692 0 128 0C57.3075 0 0 57.3075 0 128C0 198.692 57.3075 256 128 256Z" fill="#FF4500"/>
    <path d="M213.3 131.215C213.3 120.839 204.909 112.598 194.683 112.598C189.852 112.591 185.206 114.45 181.713 117.787C168.895 108.63 151.345 102.68 131.813 101.917L140.357 61.936L168.13 67.886C168.437 74.906 174.234 80.553 181.408 80.553C188.732 80.553 194.683 74.603 194.683 67.275C194.683 59.951 188.733 54 181.408 54C176.22 54 171.64 57.052 169.504 61.478L138.528 54.916C137.612 54.762 136.696 54.916 136.085 55.374C135.322 55.832 134.865 56.594 134.714 57.51L125.25 102.068C105.413 102.68 87.558 108.63 74.588 117.94C71.0946 114.603 66.4477 112.745 61.617 112.752C51.24 112.752 43 121.143 43 131.369C43 138.998 47.577 145.406 53.988 148.308C53.6767 150.174 53.5235 152.062 53.53 153.954C53.53 182.64 86.95 205.99 128.151 205.99C169.353 205.99 202.773 182.794 202.773 153.954C202.772 152.063 202.619 150.175 202.315 148.308C208.723 145.406 213.3 138.844 213.3 131.215ZM85.422 144.49C85.422 137.166 91.372 131.215 98.7 131.215C106.024 131.215 111.975 137.165 111.975 144.49C111.975 151.815 106.025 157.768 98.7 157.768C91.373 157.918 85.422 151.815 85.422 144.49ZM159.739 179.741C150.583 188.898 133.186 189.509 128.151 189.509C122.963 189.509 105.567 188.744 96.561 179.741C95.19 178.368 95.19 176.231 96.561 174.858C97.935 173.487 100.071 173.487 101.445 174.858C107.245 180.658 119.453 182.64 128.151 182.64C136.85 182.64 149.209 180.657 154.855 174.858C156.229 173.487 158.365 173.487 159.739 174.858C160.959 176.231 160.959 178.368 159.739 179.741ZM157.296 157.919C149.971 157.919 144.021 151.969 144.021 144.644C144.021 137.319 149.971 131.369 157.296 131.369C164.623 131.369 170.573 137.319 170.573 144.644C170.573 151.814 164.623 157.919 157.296 157.919Z" fill="white"/>
</svg>
