<svg width="50" height="50" viewBox="0 0 257 258" fill="none" xmlns="http://www.w3.org/2000/svg">
    <path d="M1.07 127.416C1.063 149.873 6.93 171.796 18.084 191.12L0 257.147L67.571 239.43C86.189 249.581 107.151 254.933 128.481 254.941H128.536C198.784 254.941 255.97 197.773 256 127.518C256.012 93.47 242.764 61.453 218.7 37.368C194.633 13.286 162.633 0.014 128.536 0C58.276 0 1.098 57.16 1.07 127.416ZM41.311 187.792L38.788 183.787C28.182 166.923 22.584 147.435 22.592 127.424C22.614 69.029 70.138 21.52 128.576 21.52C156.876 21.532 183.472 32.564 203.476 52.58C223.479 72.598 234.486 99.208 234.479 127.51C234.453 185.905 186.928 233.42 128.536 233.42H128.494C109.481 233.41 90.834 228.304 74.572 218.655L70.702 216.36L30.604 226.873L41.311 187.792Z" fill="url(#paint0_linear_0_1)"/>
    <path d="M10.03 126.004C10.024 147.681 15.688 168.847 26.458 187.503L9 251.245L74.232 234.141C92.2743 243.963 112.489 249.11 133.032 249.111H133.086C200.901 249.111 256.104 193.928 256.133 126.101C256.146 93.234 243.358 62.328 220.124 39.076C196.894 15.826 165.999 3.015 133.081 3C65.258 3 10.059 58.18 10.031 126.004" fill="url(#paint1_linear_0_1)"/>
    <path d="M102.91 74.5771C100.524 69.2741 98.013 69.1671 95.744 69.0741C93.886 68.9941 91.762 69.0001 89.64 69.0001C87.516 69.0001 84.065 69.7991 81.148 72.9841C78.228 76.1721 70 83.8761 70 99.5451C70 115.215 81.413 130.358 83.004 132.485C84.597 134.608 105.037 167.792 137.409 180.558C164.313 191.167 169.788 189.057 175.627 188.525C181.467 187.995 194.471 180.823 197.124 173.386C199.779 165.95 199.779 159.576 198.983 158.244C198.187 156.917 196.063 156.12 192.878 154.528C189.692 152.935 174.034 145.23 171.115 144.167C168.195 143.105 166.072 142.575 163.948 145.764C161.824 148.948 155.725 156.12 153.866 158.244C152.009 160.373 150.15 160.638 146.966 159.045C143.779 157.447 133.522 154.088 121.353 143.239C111.885 134.797 105.493 124.372 103.635 121.183C101.777 117.999 103.436 116.273 105.033 114.686C106.464 113.259 108.219 110.967 109.813 109.108C111.401 107.248 111.931 105.921 112.993 103.797C114.056 101.671 113.524 99.8111 112.729 98.2181C111.931 96.6251 105.742 80.8741 102.91 74.5771Z" fill="white"/>
    <defs>
        <linearGradient id="paint0_linear_0_1" x1="12800" y1="25714.7" x2="12800" y2="0" gradientUnits="userSpaceOnUse">
            <stop stop-color="#F9F9F9"/>
            <stop offset="1" stop-color="white"/>
        </linearGradient>
        <linearGradient id="paint1_linear_0_1" x1="12365.7" y1="24827.5" x2="12365.7" y2="3" gradientUnits="userSpaceOnUse">
            <stop stop-color="#1FAF38"/>
            <stop offset="1" stop-color="#60D669"/>
        </linearGradient>
    </defs>
</svg>
