<svg width="50" height="50" viewBox="0 0 39 39" fill="none" xmlns="http://www.w3.org/2000/svg">
    <path d="M35.4339 16.3174H34.125V16.25H19.5V22.75H28.6837C27.3439 26.5338 23.7437 29.25 19.5 29.25C14.1156 29.25 9.75 24.8844 9.75 19.5C9.75 14.1156 14.1156 9.75 19.5 9.75C21.9854 9.75 24.2466 10.6876 25.9683 12.2192L30.5646 7.62287C27.6624 4.91806 23.7803 3.25 19.5 3.25C10.5259 3.25 3.25 10.5259 3.25 19.5C3.25 28.4741 10.5259 35.75 19.5 35.75C28.4741 35.75 35.75 28.4741 35.75 19.5C35.75 18.4104 35.6379 17.3469 35.4339 16.3174Z" fill="#FFC107"/>
    <path d="M5.12366 11.9364L10.4626 15.8519C11.9072 12.2753 15.4058 9.75 19.5 9.75C21.9855 9.75 24.2467 10.6876 25.9683 12.2192L30.5647 7.62287C27.6624 4.91806 23.7803 3.25 19.5 3.25C13.2584 3.25 7.84553 6.77381 5.12366 11.9364Z" fill="#FF3D00"/>
    <path d="M19.5 35.7501C23.6974 35.7501 27.5113 34.1438 30.3948 31.5316L25.3654 27.2757C23.6791 28.5581 21.6186 29.2517 19.5 29.2501C15.2734 29.2501 11.6846 26.555 10.3326 22.7939L5.03345 26.8768C7.72282 32.1393 13.1844 35.7501 19.5 35.7501Z" fill="#4CAF50"/>
    <path d="M35.4339 16.3174H34.125V16.25H19.5V22.75H28.6837C28.0428 24.5508 26.8884 26.1245 25.363 27.2764L25.3654 27.2748L30.3948 31.5307C30.0389 31.8541 35.75 27.625 35.75 19.5C35.75 18.4104 35.6379 17.3469 35.4339 16.3174Z" fill="#1976D2"/>
</svg>
