<svg width="50" height="50" viewBox="0 0 12 14" fill="none" xmlns="http://www.w3.org/2000/svg">
    <path d="M7.17695 0.475977C7.10267 0.420263 7.01434 0.386336 6.92186 0.377997C6.82938 0.369658 6.7364 0.387237 6.65335 0.428763C6.57029 0.47029 6.50045 0.534123 6.45163 0.613111C6.40281 0.692099 6.37695 0.783121 6.37695 0.875977C6.37695 2.52098 5.98095 4.67298 3.97095 5.53298C3.69895 5.13798 3.43895 4.46998 3.43895 3.50098C3.43887 3.41585 3.41704 3.33215 3.37556 3.25782C3.33407 3.18349 3.27429 3.12098 3.20189 3.07621C3.12948 3.03144 3.04684 3.00591 2.96181 3.00202C2.87677 2.99812 2.79214 3.01601 2.71595 3.05398C1.66995 3.57698 0.251953 5.06398 0.251953 7.87598C0.251953 9.76198 0.963953 11.213 2.05995 12.187C3.14795 13.154 4.58295 13.627 6.00195 13.627C7.42095 13.627 8.85595 13.154 9.94395 12.187C11.04 11.213 11.752 9.76198 11.752 7.87698C11.752 4.10598 8.92095 1.78298 7.17695 0.475977Z" fill="#DA204C"/>
</svg>
